<svg xmlns="http://www.w3.org/2000/svg" xmlns:xlink="http://www.w3.org/1999/xlink" width="675" height="1200" viewBox="0 0 675 1200"><defs><style>.a{fill:#ffcc4d;}.b{clip-path:url(#a);}.c{fill:#f74d52;}.d{fill:#28dea5;}.e{fill:#040306;}.f{fill:#1482c2;}.g{fill:#5249d1;}</style><clipPath id="a"><rect width="675" height="1200"/></clipPath></defs><rect class="a" width="675" height="1200"/><g class="b"><path class="c" d="M597.851,1022.81l-10.839-2.164s-316.359-54.333-465.159-34.588A303.972,303.972,0,0,0,106.934,944.2C65.286,953.87,31.207,982-.717,1010.013q-2.529,2.22-5.042,4.436,2.52-.807,5.042-1.594V1206.49H677.467V1039.263C650.724,1033.63,597.851,1022.81,597.851,1022.81Z"/></g><g class="b"><path class="c" d="M18.193,1027.07c-.386-1.368,2.216-2.775,3.963-2.516a1.774,1.774,0,0,1,.611.132c11.722,5.044,58.4,26.125,40.949,43.977-21.307,21.8-38.12-28.263-45.2-40.956A.811.811,0,0,1,18.193,1027.07Z"/></g><g class="b"><path class="c" d="M85.705,1164.59c-12.679,12.691-29.288,4.47-38.459-7.41-6.173-8-10.717-17.255-14.731-26.482-1.932-4.441-3.473-13.072-6.759-16.8a.872.872,0,0,1-.576-.744c0-.008,0-.015,0-.023a.988.988,0,0,1-.045-.556q-.083-1.018-.166-2.036c-.188-2.308,4.141-4.049,5.982-3.108C43.965,1114.08,105.256,1145.02,85.705,1164.59Z"/></g><g class="b"><path class="c" d="M150.3,1039.01c-3.5,8.391-10.128,10.939-17.988,10.174-17.3-1.684-40.537-19.41-49.37-26.206-.653-.5,2.908-4.073,4.5-3.889,7.033-1.06,25.857-3.184,41.344-1.437C144.119,1019.38,156.179,1024.9,150.3,1039.01Z"/></g><g class="b"><path class="d" d="M667.525,103.164c-29.524,24.316-65.392,39.927-102.3,49.291-37.748,9.578-77.556,13.065-116.04,5.859-34.724-6.5-65.982-21.916-92.755-43.382a325.907,325.907,0,0,1-47.815,42.859c32.332,28.216,69.6,50.512,111.014,63.8,44.6,14.308,92.029,17.571,138.452,12.294,25-2.841,51.433-5.984,74.09-17.511A365.84,365.84,0,0,0,694.1,176.525V76.641A197.722,197.722,0,0,1,667.525,103.164Z"/><path class="d" d="M309.453,65.155a350.917,350.917,0,0,1-32.108-54.771c-3.535-7.439-8.2-22.531-12.323-27.088-1.636-1.806-.957-3.893.617-5.4L201.617-2.737c-1.8.283-3.687,1.376-3.262,2.57,11.7,32.91,30.59,64.309,50.933,92.5a388.845,388.845,0,0,0,59.33,65.459,325.857,325.857,0,0,0,47.815-42.859A254.491,254.491,0,0,1,309.453,65.155Z"/><path class="e" d="M351.116,52.217c21.977.335,17.393-36.762,15.434-50.394-.142-.986-4.393-.169-4.84,1.025C354.792,11.352,325.106,51.821,351.116,52.217Z"/><path class="e" d="M438.6,73.913c-1.114-1.008-4.294-.105-4.534,1.46,0,.011-.01.022-.014.033-2.933,8.523-31.423,53.86-3.612,51.061,19.252-1.938,11.148-39.592,8.569-51.665A.752.752,0,0,0,438.6,73.913Z"/><path class="e" d="M480.293-17.225c-1.538-.355-4.456.773-4.028,1.923-.08,3.969-2.99,9.275-4.11,13.05a125.565,125.565,0,0,0-4.8,21.565c-1.074,9.591.238,23.69,13.5,21.231,20.752-3.848,4.6-45.543.291-57.15C481.149-16.96,480.8-17.156,480.293-17.225Z"/><path class="e" d="M516.49,72.338c-1.094.219-2.058.919-2,1.959.614,10.132-12.432,56.676,9.7,53.456,21.827-3.174.222-44.777-5-54.713A2.173,2.173,0,0,0,516.49,72.338Z"/><path class="e" d="M566.922,57.416c-1.124-1.022-5.064.2-4.617,1.691,3.5,11.663,14.208,53.624,33.651,40.74C616.129,86.48,577.586,63.257,566.922,57.416Z"/><path class="e" d="M564.3-25.086a1.659,1.659,0,0,0-.545-.181c-1.57-.411-4.089.6-3.874,1.885a.74.74,0,0,0,.225.607c.53,1.249,1.114,2.866,1.757,4.737h14.025C571.083-21.2,566.791-23.68,564.3-25.086Z"/><path class="e" d="M597.271,18.969C610.683,8.047,590.8-8.247,575.893-18.038H561.868C567.522-1.588,577.815,34.812,597.271,18.969Z"/><path class="e" d="M635.973,24.056c-1.239-.762-4.38.206-4.38,1.828v1.431a.693.693,0,0,0,0,.391v.016a.606.606,0,0,0,.351.537c2.1,2.783,2.693,8.912,3.8,12.129,2.292,6.671,4.955,13.394,8.834,19.329,5.764,8.818,16.961,15.506,26.593,7.372C686.022,54.544,644.736,29.444,635.973,24.056Z"/></g><g class="b"><path class="f" d="M86.911,1067.39c17.951-18.254-30.073-39.81-42.133-44.967a1.845,1.845,0,0,0-.629-.135c-1.8-.265-4.474,1.175-4.077,2.573a.831.831,0,0,0,.329.651C47.688,1038.49,64.987,1089.69,86.911,1067.39Z"/></g><g class="b"><path class="f" d="M53.575,1104.42c-1.818-.923-6.09.785-5.9,3.048q.083,1,.164,2a.959.959,0,0,0,.045.545c0,.008,0,.015,0,.023a.859.859,0,0,0,.569.73c3.244,3.656,4.764,12.122,6.671,16.479,3.962,9.051,8.448,18.133,14.541,25.976,9.053,11.653,25.446,19.717,37.961,7.269C126.92,1141.29,66.423,1110.94,53.575,1104.42Z"/></g><g class="b"><path class="f" d="M152.573,1014.95c-16.93-1.9-37.506.409-45.194,1.56-1.743-.2-5.635,3.679-4.921,4.224,9.656,7.383,35.06,26.639,53.967,28.468,8.592.831,15.842-1.936,19.663-11.052C182.512,1022.83,169.328,1016.83,152.573,1014.95Z"/></g><g class="b"><path class="g" d="M254.423,92.133c-20.208-27.726-38.973-58.611-50.6-90.982-.422-1.174,1.448-2.249,3.241-2.528l63.6-19.05a7.632,7.632,0,0,1,3.713-1.919l10.111-3.013H-13.469V237.687q32.541,1.032,65.212-.631c64.7-3.357,132.943-17.188,192.622-41.429q-5.726-3.044-11.568-6l.085-.066q5.736,3.045,11.483,6.071a383.148,383.148,0,0,0,56.629-30.559q6.276-4.12,12.366-8.547A383.993,383.993,0,0,1,254.423,92.133ZM42.7,74.964c-1.777-1.33-3.56-2.655-5.328-3.993,1.786,1.3,3.586,2.585,5.381,3.874C42.735,74.885,42.717,74.924,42.7,74.964Z"/></g><g class="b"><path class="d" d="M91.006,906.74C59.822,851.648,18.595,803.712-29.475,764.048q-12.818,14.042-25.069,28.519l6.049,240.579c47.117-40.165,91.62-87.734,152.961-100.577C100.239,923.872,95.815,915.237,91.006,906.74Z"/></g></svg>