<?xml version="1.0" encoding="utf-8"?>
<!-- Generator: Adobe Illustrator 27.5.0, SVG Export Plug-In . SVG Version: 6.00 Build 0)  -->
<svg version="1.1" xmlns="http://www.w3.org/2000/svg" xmlns:xlink="http://www.w3.org/1999/xlink" x="0px" y="0px"
	 viewBox="0 0 675 1200" style="enable-background:new 0 0 675 1200;" xml:space="preserve">
<g id="Background_1_">
	<rect x="0" style="fill:#FFCC4D;" width="675" height="1200"/>
</g>
<g id="Graphic_Elements_1_">
	<g>
		<defs>
			<rect id="SVGID_1_" x="0" width="675" height="1200"/>
		</defs>
		<clipPath id="SVGID_00000070834834323310834370000013044328927058471081_">
			<use xlink:href="#SVGID_1_"  style="overflow:visible;"/>
		</clipPath>
		<path style="clip-path:url(#SVGID_00000070834834323310834370000013044328927058471081_);fill:#F74D52;" d="M597.851,1022.809
			c13.643-13.036,30.286-23.336,45.371-34.061c1.907-1.356,3.185-4.141,1.657-6.338c-7.227-10.388-15.375-20.762-26.352-27.314
			c-12.737-7.602-26.319-11.846-40.25-16.589c-28.674-9.763-58.813-20.831-84.778-36.655
			c-24.024-14.641-42.197-36.202-62.397-55.386c-20.939-19.886-44.654-35.061-70.534-47.548
			c-38.658-18.654-77.041-37.908-114.92-58.11c-18.613-9.927-37.106-20.078-55.447-30.506
			c-55.498-31.556-110.37-65.141-160.745-104.53c-10.297-8.052-20.396-16.281-30.172-24.845V593.1
			c0.533,0.449,1.066,0.9,1.598,1.348c47.214,39.73,99.05,73.446,152.009,104.887c26.937,15.992,54.256,31.32,81.852,46.135
			c28.862,15.494,58.026,30.425,87.381,44.947c27.54,13.624,56.088,25.429,80.635,44.245c22.615,17.335,40.818,39.154,62.356,57.667
			c23.91,20.553,52.883,32.911,81.9,44.477c15.877,6.328,32.302,11.003,48.238,17.082c16.557,6.316,28.809,15.982,39.167,29.776
			c-15.228,10.645-33.248,22.569-47.408,36.982c-161.926-32.143-316.359-54.333-465.159-34.588
			c-3.918-14.185-8.88-28.178-14.919-41.856c-41.648,9.668-75.727,37.795-107.651,65.811c-1.686,1.48-3.367,2.959-5.042,4.436
			c1.68-0.538,3.361-1.069,5.042-1.594v193.635h99.443h345.432h13.258h220.051v-49.746v-8.785v-0.479v-8.838v-99.379
			C650.724,1033.625,624.188,1028.095,597.851,1022.809z"/>
		<path style="clip-path:url(#SVGID_00000070834834323310834370000013044328927058471081_);fill:#F74D52;" d="M18.193,1027.072
			c-0.386-1.368,2.216-2.775,3.963-2.516c0.222,0.012,0.429,0.053,0.611,0.132c11.722,5.044,58.395,26.125,40.949,43.977
			c-21.307,21.803-38.12-28.263-45.202-40.956C18.291,1027.521,18.192,1027.303,18.193,1027.072z"/>
		<path style="clip-path:url(#SVGID_00000070834834323310834370000013044328927058471081_);fill:#F74D52;" d="M85.705,1164.59
			c-12.679,12.691-29.288,4.47-38.459-7.41c-6.173-7.996-10.717-17.255-14.731-26.482c-1.932-4.441-3.473-13.072-6.759-16.799
			c-0.333-0.148-0.548-0.39-0.576-0.744c-0.001-0.008-0.001-0.015-0.002-0.023c-0.069-0.182-0.083-0.368-0.045-0.556
			c-0.055-0.679-0.111-1.358-0.166-2.036c-0.188-2.308,4.141-4.049,5.982-3.108C43.965,1114.084,105.256,1145.02,85.705,1164.59z"/>
		<path style="clip-path:url(#SVGID_00000070834834323310834370000013044328927058471081_);fill:#F74D52;" d="M150.303,1039.006
			c-3.496,8.391-10.128,10.939-17.988,10.174c-17.297-1.684-40.537-19.41-49.37-26.206c-0.653-0.502,2.908-4.073,4.502-3.889
			c7.033-1.06,25.857-3.184,41.344-1.437C144.119,1019.378,156.179,1024.901,150.303,1039.006z"/>
		<g style="clip-path:url(#SVGID_00000070834834323310834370000013044328927058471081_);">
			<path style="fill:#28DEA5;" d="M667.525,103.164c-29.524,24.316-65.392,39.927-102.297,49.291
				c-37.748,9.578-77.556,13.065-116.04,5.859c-34.724-6.502-65.982-21.916-92.755-43.382
				c-14.469,15.825-30.568,30.221-47.815,42.859c32.332,28.216,69.602,50.512,111.014,63.799
				c44.597,14.308,92.029,17.571,138.452,12.294c24.996-2.841,51.433-5.984,74.09-17.511c21.79-11.087,42.646-24.485,61.927-39.848
				V76.641C686.186,86.195,677.333,95.086,667.525,103.164z"/>
			<g>
				<path style="fill:#28DEA5;" d="M309.453,65.155c-12.412-17.21-23.009-35.626-32.108-54.771
					c-3.535-7.439-8.195-22.531-12.323-27.088c-1.636-1.806-0.957-3.893,0.617-5.4c-21.341,6.456-42.682,12.911-64.022,19.367
					c-1.805,0.283-3.687,1.376-3.262,2.57c11.699,32.91,30.59,64.309,50.933,92.497c17.279,23.943,37.142,46.095,59.33,65.459
					c17.248-12.638,33.346-27.034,47.815-42.859C338.707,100.719,322.942,83.857,309.453,65.155z"/>
				<path style="fill:#040306;" d="M351.116,52.217c21.977,0.335,17.393-36.762,15.434-50.394c-0.142-0.986-4.393-0.169-4.84,1.025
					C354.792,11.352,325.106,51.821,351.116,52.217z"/>
				<path style="fill:#040306;" d="M438.604,73.913c-1.114-1.008-4.294-0.105-4.534,1.46c-0.004,0.011-0.01,0.022-0.014,0.033
					c-2.933,8.523-31.423,53.86-3.612,51.061c19.252-1.938,11.148-39.592,8.569-51.665
					C439.105,74.386,438.934,74.093,438.604,73.913z"/>
				<path style="fill:#040306;" d="M480.293-17.225c-1.538-0.355-4.456,0.773-4.028,1.923c-0.08,3.969-2.99,9.275-4.11,13.05
					c-2.09,7.047-3.983,14.248-4.803,21.565c-1.074,9.591,0.238,23.69,13.5,21.231c20.752-3.848,4.602-45.543,0.291-57.15
					C481.149-16.96,480.801-17.156,480.293-17.225z"/>
				<path style="fill:#040306;" d="M516.49,72.338c-1.094,0.219-2.058,0.919-1.996,1.959c0.614,10.132-12.432,56.676,9.704,53.456
					c21.827-3.174,0.222-44.777-5-54.713C518.719,72.129,517.541,71.997,516.49,72.338z"/>
				<path style="fill:#040306;" d="M566.922,57.416c-1.124-1.022-5.064,0.202-4.617,1.691c3.503,11.663,14.208,53.624,33.651,40.74
					C616.129,86.48,577.586,63.257,566.922,57.416z"/>
				<path style="fill:#040306;" d="M564.303-25.086c-0.159-0.089-0.343-0.148-0.545-0.181c-1.57-0.411-4.089,0.604-3.874,1.885
					c-0.024,0.209,0.044,0.415,0.225,0.607c0.53,1.249,1.114,2.866,1.757,4.737h14.025C571.083-21.197,566.791-23.68,564.303-25.086
					z"/>
				<path style="fill:#040306;" d="M597.271,18.969c13.412-10.922-6.472-27.216-21.378-37.007h-14.025
					C567.522-1.588,577.815,34.812,597.271,18.969z"/>
				<path style="fill:#040306;" d="M635.973,24.056c-1.239-0.762-4.38,0.206-4.38,1.828c0,0.477,0,0.954,0,1.431
					c-0.037,0.129-0.038,0.26,0,0.391c0,0.005,0,0.011,0,0.016c0,0.242,0.137,0.415,0.351,0.537
					c2.105,2.783,2.693,8.912,3.799,12.129c2.292,6.671,4.955,13.394,8.834,19.329c5.764,8.818,16.961,15.506,26.593,7.372
					C686.022,54.544,644.736,29.444,635.973,24.056z"/>
			</g>
		</g>
		<path style="clip-path:url(#SVGID_00000070834834323310834370000013044328927058471081_);fill:#1482C2;" d="M86.911,1067.394
			c17.951-18.254-30.073-39.81-42.133-44.967c-0.187-0.08-0.4-0.123-0.629-0.135c-1.797-0.265-4.474,1.175-4.077,2.573
			c-0.001,0.236,0.101,0.458,0.329,0.651C47.688,1038.494,64.987,1089.687,86.911,1067.394z"/>
		<path style="clip-path:url(#SVGID_00000070834834323310834370000013044328927058471081_);fill:#1482C2;" d="M53.575,1104.416
			c-1.818-0.923-6.09,0.785-5.905,3.048c0.055,0.666,0.109,1.332,0.164,1.998c-0.037,0.184-0.024,0.367,0.045,0.545
			c0.001,0.008,0.001,0.015,0.002,0.023c0.029,0.348,0.241,0.585,0.569,0.73c3.244,3.656,4.764,12.122,6.671,16.479
			c3.962,9.051,8.448,18.133,14.541,25.976c9.053,11.653,25.446,19.717,37.961,7.269
			C126.92,1141.288,66.423,1110.942,53.575,1104.416z"/>
		<path style="clip-path:url(#SVGID_00000070834834323310834370000013044328927058471081_);fill:#1482C2;" d="M152.573,1014.949
			c-16.93-1.898-37.506,0.409-45.194,1.56c-1.743-0.2-5.635,3.679-4.921,4.224c9.656,7.383,35.06,26.639,53.967,28.468
			c8.592,0.831,15.842-1.936,19.663-11.052C182.512,1022.826,169.328,1016.828,152.573,1014.949z"/>
		<path style="clip-path:url(#SVGID_00000070834834323310834370000013044328927058471081_);fill:#5249D1;" d="M254.423,92.133
			c-20.208-27.726-38.973-58.611-50.595-90.982c-0.422-1.174,1.448-2.249,3.241-2.528c21.199-6.35,42.398-12.7,63.598-19.05
			c0.997-0.946,2.353-1.661,3.713-1.919c3.37-1.004,6.74-2.009,10.111-3.013H-13.469v263.046
			c21.694,0.688,43.448,0.498,65.212-0.631c64.696-3.357,132.943-17.188,192.622-41.429c-3.817-2.029-7.678-4.026-11.568-6.004
			c0.028-0.022,0.057-0.044,0.085-0.066c3.824,2.03,7.649,4.059,11.483,6.071c19.662-8.616,38.623-18.736,56.629-30.559
			c4.184-2.747,8.305-5.601,12.366-8.547C291.319,137.473,271.588,115.683,254.423,92.133z M42.7,74.964
			c-1.777-1.33-3.56-2.655-5.328-3.993c1.786,1.301,3.586,2.585,5.381,3.874C42.735,74.885,42.717,74.924,42.7,74.964z"/>
		<path style="clip-path:url(#SVGID_00000070834834323310834370000013044328927058471081_);fill:#28DEA5;" d="M91.006,906.74
			C59.822,851.648,18.595,803.712-29.475,764.048c-8.545,9.361-16.891,18.877-25.069,28.519l6.049,240.579
			c47.117-40.165,91.62-87.734,152.961-100.577C100.239,923.872,95.815,915.237,91.006,906.74z"/>
	</g>
</g>
</svg>
